<?xml version="1.0" standalone="no"?>
<!DOCTYPE svg PUBLIC "-//W3C//DTD SVG 20010904//EN"
 "http://www.w3.org/TR/2001/REC-SVG-20010904/DTD/svg10.dtd">
<svg version="1.0" xmlns="http://www.w3.org/2000/svg"
 width="1280.000000pt" height="640.000000pt" viewBox="0 0 1280.000000 640.000000"
 preserveAspectRatio="xMidYMid meet">
<metadata>
Created by potrace 1.15, written by Peter Selinger 2001-2017
</metadata>
<g transform="translate(0.000000,640.000000) scale(0.100000,-0.100000)"
fill="#ffffff" stroke="none">
<path d="M3410 4352 l0 -1492 4685 0 4685 0 0 1485 0 1485 -1368 0 c-753 0
-2861 3 -4685 7 l-3317 6 0 -1491z"/>
<path d="M657 5033 c-14 -38 -144 -383 -287 -768 -144 -385 -286 -766 -316
-846 l-54 -146 2 -904 3 -904 22 -41 c24 -44 72 -90 110 -105 12 -4 122 -9
244 -9 l222 -1 43 131 c122 371 340 644 619 776 119 56 188 73 320 81 361 19
682 -186 909 -580 l27 -47 619 0 618 0 58 82 c168 241 409 416 671 485 82 21
121 26 233 26 140 1 216 -12 330 -54 316 -117 540 -433 578 -815 l7 -69 173
-3 172 -2 0 46 c0 25 -9 90 -20 144 -90 442 -429 926 -746 1066 -126 56 -78
54 -1416 54 l-1237 0 6 1228 6 1229 -174 6 c-96 4 -521 7 -945 7 l-771 0 -26
-67z"/>
<path d="M9433 2619 c-320 -47 -681 -442 -852 -932 -36 -104 -71 -266 -71
-331 l0 -46 172 2 172 3 13 95 c48 371 245 651 560 797 136 63 246 86 418 86
162 1 231 -11 354 -60 129 -51 281 -170 281 -220 l0 -23 175 0 175 0 0 24 c0
15 19 42 53 75 218 217 634 271 978 126 304 -128 512 -400 573 -750 9 -49 16
-105 16 -122 l0 -33 175 0 175 0 0 33 c0 64 -32 214 -70 327 -95 287 -249 534
-453 726 -107 100 -202 162 -315 202 l-77 27 -1195 1 c-667 1 -1222 -2 -1257
-7z"/>
<path d="M1445 2095 c-274 -59 -497 -273 -577 -552 -32 -111 -32 -295 0 -406
80 -280 296 -484 583 -552 81 -19 234 -19 321 0 389 82 661 460 608 845 -26
192 -93 325 -230 461 -71 71 -103 94 -181 133 -128 63 -225 86 -358 85 -58 0
-133 -6 -166 -14z"/>
<path d="M4493 2095 c-130 -28 -276 -110 -377 -213 -236 -240 -291 -585 -140
-891 41 -82 62 -110 143 -191 106 -106 192 -158 331 -202 65 -20 95 -23 220
-22 130 0 153 3 225 27 270 91 467 307 526 577 17 79 17 244 1 320 -31 140
-99 266 -200 372 -152 160 -339 239 -562 237 -58 0 -133 -7 -167 -14z"/>
<path d="M9590 2090 c-285 -77 -500 -296 -565 -575 -21 -92 -21 -249 0 -345
94 -417 516 -680 931 -580 367 87 611 415 591 790 -7 122 -25 198 -72 295 -92
190 -254 331 -460 401 -111 38 -312 44 -425 14z"/>
<path d="M11301 2090 c-40 -9 -117 -39 -170 -65 -81 -41 -110 -62 -186 -139
-105 -106 -162 -200 -199 -327 -35 -121 -42 -224 -22 -334 32 -186 93 -305
220 -430 156 -153 328 -224 544 -225 125 0 217 22 342 82 93 45 115 61 200
147 108 109 163 201 201 336 33 115 33 297 1 410 -80 278 -307 492 -583 550
-95 20 -256 18 -348 -5z"/>
</g>
</svg>
