<svg viewBox="90 80 310 260" xmlns="http://www.w3.org/2000/svg">
  <defs>
    <radialGradient gradientUnits="userSpaceOnUse" cx="246.524" cy="210.462" r="78.136" id="a" gradientTransform="matrix(2.10668 .0304 -.01494 1.03468 -267.68 -18.795)">
      <stop offset="0" style="stop-color:#9bd763"/>
      <stop offset="1" style="stop-color:rgba(116,189,49,.89)"/>
    </radialGradient>
  </defs>
  <path style="stroke:#000;opacity:.8;fill:#15b1f6;stroke-width:0;paint-order:fill" d="M205.555 228.557c.41 10.071.176 20.871-1.794 30.96-1.97 10.089-5.676 19.468-12.207 26.697-6.599 7.304-13.559 15.528-22.873 19.056-9.314 3.528-15.63 4.903-27.848 3.551-9.755-1.08-18.035-3.184-20.689-4.486-2.654-1.302-4.344-1.547-20.025-10.551-5.848-3.358-2.085 1.643 4.226 6.544 6.31 4.902 14.924 11.085 18.941 14.154 8.326 6.362 18.814 11.489 29.766 14.403 10.951 2.914 22.365 3.616 32.544 1.128 9.712-2.374 19.548-6.887 28.321-12.9 8.774-6.013 16.486-13.525 21.95-21.898 18.461-28.291 16.728-60.316 4.642-89.3-12.087-28.984-34.529-54.927-57.485-71.052-98.879-69.457-93.929-62.809-63.918-30.41 30.012 32.4 85.084 90.551 86.449 124.104Z" transform="rotate(180 173.439 206.232)"/>
  <path style="stroke:#000;opacity:.8;fill:#15b1f6;stroke-width:0;paint-order:fill" d="M353.657 184.938c.41-10.071.176-20.871-1.794-30.96-1.97-10.089-5.676-19.468-12.207-26.697-6.599-7.304-13.559-15.528-22.873-19.056-9.314-3.528-15.63-4.903-27.848-3.551-9.755 1.08-18.035 3.184-20.689 4.486-2.654 1.302-4.344 1.547-20.025 10.551-5.848 3.358-2.085-1.643 4.226-6.544 6.31-4.902 14.924-11.085 18.941-14.154 8.326-6.362 18.814-11.489 29.766-14.403 10.951-2.914 22.365-3.616 32.544-1.128 9.712 2.374 19.548 6.887 28.321 12.9 8.774 6.013 16.486 13.525 21.95 21.898 18.461 28.291 16.728 60.316 4.642 89.3-12.087 28.984-34.529 54.927-57.485 71.052-98.879 69.457-93.929 62.809-63.918 30.41 30.012-32.4 85.084-90.551 86.449-124.104Z"/>
  <path style="stroke-linecap:round;stroke:#81ca42;fill-rule:evenodd;fill:url(#a);paint-order:fill" d="M275.289 178.256c0-.395 42.009.536 42.009 1.2 2.24-1.28 11.927 6.804 9.687 8.084 1.364.195.977 25.162.58 25.105l-1.083 11.276c1.935 1.122-7.11 8.031-8.688 6.968l-42.265-.302-.72 38.168c.672.067-.56 4.608-.96 5.281-.4.673-3.657 3.092-4.561 2.64 2.079 1.848-19.127 3.039-19.343 2.926.202.116-16.664-.053-16.664-1.138 0 .497-8.649-1.196-8.649-3.416-1.122.748-3.079-6.335-2.663-6.612l-.14-36.866c-2.426-.809-42.779-1.301-42.799-.983-.02.318-8.594-2.266-8.146-5.6-1.341.805-3.849-22.773-.496-35.449-.419-7.549 4.757-9.127 8.223-8.502 12.072-1.909 43.867-1.405 43.867-.38-.457.356-2.026-34.618-.24-36.007-.971-.347 1.72-10.777 4.337-9.842-.191-1.529 40.97-.983 41.033-.48.939-.671 7.9 5.81 6.961 6.481.971.208 3.337 38.009.72 37.448Z"/>
</svg>
